<svg xmlns="http://www.w3.org/2000/svg" width="694.134" height="694.293" viewBox="0 0 694.134 694.293">
  <g id="Group_66" data-name="Group 66" transform="translate(-373 -2272)">
    <path id="Path_393" data-name="Path 393" d="M1559.358,753.092a174.6,174.6,0,1,1,123.461-51.14A173.451,173.451,0,0,1,1559.358,753.092Z" transform="translate(-839.047 2198.201)" fill="#fff3e1"/>
    <path id="Path_394" data-name="Path 394" d="M1559.358,744.565a166.074,166.074,0,1,1,117.432-48.642A164.985,164.985,0,0,1,1559.358,744.565Z" transform="translate(-839.047 2198.201)" fill="#ffe9c5"/>
    <circle id="Ellipse_33" data-name="Ellipse 33" cx="157.547" cy="157.547" r="157.547" transform="translate(562.711 2619.146)" fill="#ffe4b3"/>
    <g id="Group_34" data-name="Group 34" transform="translate(-839.047 2184.728)">
      <path id="Path_444" data-name="Path 444" d="M1484.589,686.632c.281,1.239,1.171,1.782,2.6,1.782s2.033-.562,2.033-1.466c0-1-.594-1.439-2.7-1.93-3.358-.789-4.188-2.01-4.188-3.676,0-2.152,1.609-3.612,4.53-3.612,3.277,0,4.581,1.761,4.759,3.566h-2.688c-.129-.759-.549-1.584-2.14-1.584-1.083,0-1.736.447-1.736,1.324,0,.858.523,1.206,2.517,1.668,3.589.846,4.376,2.181,4.376,3.921,0,2.253-1.7,3.8-4.967,3.8-3.133,0-4.782-1.542-5.078-3.792Z" fill="#f7b52c"/>
      <path id="Path_445" data-name="Path 445" d="M1501.992,687.557c0,.893,0,1.864.019,2.692H1499.5c-.036-.248-.054-.744-.069-1.068a2.646,2.646,0,0,1-2.551,1.283c-1.888,0-3.093-1.148-3.093-3.444v-6.036h2.562v5.521c0,1.023.318,1.868,1.428,1.868,1.169,0,1.654-.623,1.654-2.458v-4.931h2.564Z" fill="#f7b52c"/>
      <path id="Path_446" data-name="Path 446" d="M1506.857,689.429V693.8h-2.55V683.218c0-.75,0-1.49-.017-2.234h2.484a10.724,10.724,0,0,1,.083,1.155,2.931,2.931,0,0,1,2.694-1.369c2.08,0,3.689,1.741,3.689,4.614,0,3.269-1.8,5.08-4.041,5.08A2.564,2.564,0,0,1,1506.857,689.429Zm3.78-3.946c0-1.7-.687-2.657-1.908-2.657-1.456,0-1.973.936-1.973,2.8,0,1.768.477,2.8,1.864,2.8C1509.977,688.425,1510.637,687.37,1510.637,685.483Z" fill="#f7b52c"/>
      <path id="Path_447" data-name="Path 447" d="M1517.564,689.429V693.8h-2.55V683.218c0-.75,0-1.49-.017-2.234h2.484a10.693,10.693,0,0,1,.083,1.155,2.931,2.931,0,0,1,2.694-1.369c2.08,0,3.689,1.741,3.689,4.614,0,3.269-1.8,5.08-4.041,5.08A2.565,2.565,0,0,1,1517.564,689.429Zm3.78-3.946c0-1.7-.687-2.657-1.908-2.657-1.456,0-1.973.936-1.973,2.8,0,1.768.477,2.8,1.864,2.8C1520.684,688.425,1521.344,687.37,1521.344,685.483Z" fill="#f7b52c"/>
      <path id="Path_448" data-name="Path 448" d="M1525.721,690.249V677.184h2.566v13.065Z" fill="#f7b52c"/>
      <path id="Path_449" data-name="Path 449" d="M1532.633,686.165c0,1.159.582,2.292,1.859,2.292a1.462,1.462,0,0,0,1.616-.989h2.568a4.061,4.061,0,0,1-4.251,3c-3.052,0-4.375-2.282-4.375-4.713,0-2.9,1.491-4.981,4.466-4.981,3.182,0,4.264,2.3,4.264,4.615a5.613,5.613,0,0,1-.034.78Zm3.578-1.575c-.019-1.078-.45-1.986-1.7-1.986-1.228,0-1.723.847-1.825,1.986Z" fill="#f7b52c"/>
      <path id="Path_450" data-name="Path 450" d="M1540.529,683.372c0-.8,0-1.6-.018-2.388h2.453c.034.226.086.744.1,1.1a2.89,2.89,0,0,1,2.574-1.319,2.448,2.448,0,0,1,2.391,1.41,3.212,3.212,0,0,1,2.855-1.41c1.614,0,2.935.992,2.935,3.4v6.078h-2.5v-5.766c0-.837-.3-1.655-1.353-1.655-1.09,0-1.516.7-1.516,2.124v5.3h-2.516V684.58c0-.96-.236-1.735-1.331-1.735-1.043,0-1.537.64-1.537,2.23v5.174h-2.534Z" fill="#f7b52c"/>
      <path id="Path_451" data-name="Path 451" d="M1558.165,686.165c0,1.159.582,2.292,1.859,2.292a1.461,1.461,0,0,0,1.616-.989h2.568a4.06,4.06,0,0,1-4.251,3c-3.052,0-4.375-2.282-4.375-4.713,0-2.9,1.491-4.981,4.467-4.981,3.181,0,4.263,2.3,4.263,4.615a5.613,5.613,0,0,1-.034.78Zm3.578-1.575c-.019-1.078-.449-1.986-1.7-1.986-1.229,0-1.724.847-1.825,1.986Z" fill="#f7b52c"/>
      <path id="Path_452" data-name="Path 452" d="M1566.077,683.318c0-.787,0-1.649-.018-2.334h2.485a10.944,10.944,0,0,1,.1,1.181,2.829,2.829,0,0,1,2.688-1.395c1.861,0,3.07,1.257,3.07,3.585v5.894h-2.565v-5.608c0-1.042-.347-1.8-1.479-1.8-1.09,0-1.714.605-1.714,2.241v5.163h-2.565Z" fill="#f7b52c"/>
      <path id="Path_453" data-name="Path 453" d="M1575.777,680.984h1.429v-2.508h2.565v2.508h1.815v1.929h-1.815v4.572c0,.7.214.977.979.977a4.655,4.655,0,0,0,.585-.029V690.2a5.83,5.83,0,0,1-1.725.177c-1.807,0-2.4-.967-2.4-2.587v-4.874h-1.429Z" fill="#f7b52c"/>
      <path id="Path_454" data-name="Path 454" d="M1590.861,687.855a20.83,20.83,0,0,0,.125,2.394h-2.45a3.862,3.862,0,0,1-.13-.905,2.726,2.726,0,0,1-2.6,1.12,2.864,2.864,0,0,1-3.176-2.9c0-2.111,1.694-3.085,4.411-3.085h1.322v-.566c0-.659-.237-1.306-1.427-1.306-1.083,0-1.32.46-1.437,1.13h-2.44c.139-1.646,1.158-2.978,3.974-2.962,2.482.015,3.832.985,3.832,3.19Zm-2.5-1.824h-1.045c-1.546,0-2.119.472-2.119,1.365a1.19,1.19,0,0,0,1.334,1.236c1.63,0,1.83-1.133,1.83-2.357Z" fill="#f7b52c"/>
      <path id="Path_455" data-name="Path 455" d="M1593.186,690.249V677.184h2.566v13.065Z" fill="#f7b52c"/>
      <path id="Path_456" data-name="Path 456" d="M1605.173,680.1h-3.749v-2.187h10.155V680.1h-3.736v10.153h-2.67Z" fill="#f7b52c"/>
      <path id="Path_457" data-name="Path 457" d="M1621.538,685.6c0,2.8-1.678,4.865-4.612,4.865-2.873,0-4.55-2.05-4.55-4.816,0-2.859,1.728-4.878,4.671-4.878C1619.773,680.77,1621.538,682.694,1621.538,685.6Zm-6.56.018c0,1.783.768,2.84,2,2.84,1.256,0,1.953-1.058,1.953-2.824,0-1.939-.711-2.856-1.989-2.856C1615.756,682.777,1614.978,683.658,1614.978,685.617Z" fill="#f7b52c"/>
      <path id="Path_458" data-name="Path 458" d="M1631.923,685.6c0,2.8-1.678,4.865-4.613,4.865-2.873,0-4.549-2.05-4.549-4.816,0-2.859,1.728-4.878,4.67-4.878C1630.158,680.77,1631.923,682.694,1631.923,685.6Zm-6.56.018c0,1.783.768,2.84,2,2.84,1.256,0,1.953-1.058,1.953-2.824,0-1.939-.711-2.856-1.989-2.856C1626.14,682.777,1625.363,683.658,1625.363,685.617Z" fill="#f7b52c"/>
      <path id="Path_459" data-name="Path 459" d="M1633.687,690.249V677.184h2.566v13.065Z" fill="#f7b52c"/>
      <path id="Path_460" data-name="Path 460" d="M1529.037,707.095c.281,1.239,1.171,1.782,2.6,1.782s2.033-.563,2.033-1.466c0-1-.595-1.439-2.7-1.931-3.359-.789-4.189-2.009-4.189-3.675,0-2.152,1.61-3.612,4.53-3.612,3.277,0,4.581,1.761,4.758,3.566h-2.687c-.129-.759-.549-1.584-2.14-1.584-1.083,0-1.736.447-1.736,1.324,0,.857.523,1.206,2.517,1.668,3.589.846,4.376,2.181,4.376,3.921,0,2.253-1.7,3.8-4.966,3.8-3.133,0-4.783-1.542-5.079-3.792Z" fill="#f7b52c"/>
      <path id="Path_461" data-name="Path 461" d="M1546.441,708.02c0,.893,0,1.864.019,2.692h-2.514c-.036-.248-.054-.744-.069-1.068a2.645,2.645,0,0,1-2.551,1.283c-1.888,0-3.093-1.148-3.093-3.445v-6.035h2.563v5.521c0,1.023.317,1.868,1.427,1.868,1.169,0,1.654-.623,1.654-2.458v-4.931h2.564Z" fill="#f7b52c"/>
      <path id="Path_462" data-name="Path 462" d="M1551.306,709.892v4.368h-2.549V703.681c0-.75,0-1.491-.018-2.234h2.484a10.449,10.449,0,0,1,.083,1.155,2.931,2.931,0,0,1,2.694-1.37c2.08,0,3.689,1.742,3.689,4.615,0,3.269-1.8,5.08-4.041,5.08A2.566,2.566,0,0,1,1551.306,709.892Zm3.781-3.946c0-1.7-.688-2.657-1.909-2.657-1.456,0-1.973.936-1.973,2.8,0,1.768.477,2.8,1.864,2.8C1554.427,708.888,1555.087,707.833,1555.087,705.946Z" fill="#f7b52c"/>
      <path id="Path_463" data-name="Path 463" d="M1562.013,709.892v4.368h-2.549V703.681c0-.75,0-1.491-.018-2.234h2.484a10.481,10.481,0,0,1,.083,1.155,2.931,2.931,0,0,1,2.694-1.37c2.08,0,3.689,1.742,3.689,4.615,0,3.269-1.8,5.08-4.041,5.08A2.566,2.566,0,0,1,1562.013,709.892Zm3.781-3.946c0-1.7-.688-2.657-1.908-2.657-1.457,0-1.974.936-1.974,2.8,0,1.768.477,2.8,1.864,2.8C1565.134,708.888,1565.794,707.833,1565.794,705.946Z" fill="#f7b52c"/>
      <path id="Path_464" data-name="Path 464" d="M1578.791,706.062c0,2.8-1.678,4.865-4.613,4.865-2.873,0-4.549-2.05-4.549-4.816,0-2.859,1.728-4.879,4.671-4.879C1577.026,701.232,1578.791,703.157,1578.791,706.062Zm-6.56.018c0,1.783.768,2.84,2,2.84,1.256,0,1.953-1.058,1.953-2.824,0-1.939-.711-2.856-1.989-2.856C1573.009,703.24,1572.231,704.121,1572.231,706.08Z" fill="#f7b52c"/>
      <path id="Path_465" data-name="Path 465" d="M1580.555,703.961c0-.921,0-1.738-.017-2.514h2.515c.034.208.068,1.127.068,1.627a2.968,2.968,0,0,1,2.973-1.842v2.449c-1.862-.048-2.973.452-2.973,2.992v4.039h-2.566Z" fill="#f7b52c"/>
      <path id="Path_466" data-name="Path 466" d="M1586.709,701.447h1.428v-2.509h2.566v2.509h1.814v1.929H1590.7v4.572c0,.7.214.977.978.977a4.649,4.649,0,0,0,.585-.029v1.764a5.821,5.821,0,0,1-1.724.177c-1.808,0-2.405-.967-2.405-2.587v-4.874h-1.428Z" fill="#f7b52c"/>
    </g>
    <path id="Path_391" data-name="Path 391" d="M1559.358,438a174.6,174.6,0,1,1,123.461-298.061c68.076,68.076,68.076,178.845,0,246.921A173.458,173.458,0,0,1,1559.358,438Z" transform="translate(-839.047 2198.201)" fill="#e8f3fb"/>
    <path id="Path_392" data-name="Path 392" d="M1559.358,429.472a166.073,166.073,0,1,1,117.432-283.5c64.752,64.752,64.752,170.111,0,234.863A164.989,164.989,0,0,1,1559.358,429.472Z" transform="translate(-839.047 2198.201)" fill="#d8ebf9"/>
    <circle id="Ellipse_32" data-name="Ellipse 32" cx="157.547" cy="157.547" r="157.547" transform="translate(562.711 2304.053)" fill="#d1e6f5"/>
    <g id="Group_35" data-name="Group 35" transform="translate(-836.161 2197.86)">
      <path id="Path_467" data-name="Path 467" d="M1470.255,131.434c-.5,2.3-2.232,3.979-5.323,3.979-3.912,0-5.762-2.769-5.762-6.28,0-3.383,1.909-6.414,5.89-6.414,3.286,0,4.879,1.929,5.181,3.992h-2.668a2.421,2.421,0,0,0-2.6-1.9c-2.2,0-3.049,1.979-3.049,4.225,0,2.086.737,4.283,3.122,4.283a2.452,2.452,0,0,0,2.522-1.886Z" fill="#0b1f5b"/>
      <path id="Path_468" data-name="Path 468" d="M1480.83,130.588c0,2.8-1.678,4.865-4.612,4.865-2.874,0-4.55-2.05-4.55-4.815,0-2.859,1.728-4.879,4.671-4.879C1479.065,125.759,1480.83,127.684,1480.83,130.588Zm-6.56.018c0,1.783.768,2.84,2,2.84,1.256,0,1.953-1.057,1.953-2.824,0-1.939-.711-2.856-1.989-2.856C1475.048,127.766,1474.27,128.647,1474.27,130.606Z" fill="#0b1f5b"/>
      <path id="Path_469" data-name="Path 469" d="M1482.594,128.487c0-.921,0-1.738-.017-2.513h2.516c.033.208.067,1.127.067,1.627a2.966,2.966,0,0,1,2.973-1.842v2.448c-1.862-.048-2.973.453-2.973,2.992v4.039h-2.566Z" fill="#0b1f5b"/>
      <path id="Path_470" data-name="Path 470" d="M1491.69,131.155c0,1.158.582,2.291,1.86,2.291a1.462,1.462,0,0,0,1.616-.989h2.567a4.06,4.06,0,0,1-4.251,3c-3.052,0-4.375-2.282-4.375-4.712,0-2.907,1.491-4.982,4.467-4.982,3.182,0,4.264,2.3,4.264,4.615a5.473,5.473,0,0,1-.035.781Zm3.578-1.576c-.018-1.079-.449-1.986-1.7-1.986-1.228,0-1.724.847-1.825,1.986Z" fill="#0b1f5b"/>
      <path id="Path_471" data-name="Path 471" d="M1514.713,131.434c-.5,2.3-2.232,3.979-5.323,3.979-3.912,0-5.762-2.769-5.762-6.28,0-3.383,1.909-6.414,5.89-6.414,3.286,0,4.879,1.929,5.181,3.992h-2.668a2.421,2.421,0,0,0-2.6-1.9c-2.2,0-3.049,1.979-3.049,4.225,0,2.086.737,4.283,3.122,4.283a2.452,2.452,0,0,0,2.522-1.886Z" fill="#0b1f5b"/>
      <path id="Path_472" data-name="Path 472" d="M1525.288,130.588c0,2.8-1.678,4.865-4.612,4.865-2.873,0-4.55-2.05-4.55-4.815,0-2.859,1.728-4.879,4.671-4.879C1523.523,125.759,1525.288,127.684,1525.288,130.588Zm-6.56.018c0,1.783.768,2.84,2,2.84,1.256,0,1.953-1.057,1.953-2.824,0-1.939-.711-2.856-1.989-2.856C1519.506,127.766,1518.728,128.647,1518.728,130.606Z" fill="#0b1f5b"/>
      <path id="Path_473" data-name="Path 473" d="M1527.068,128.308c0-.787,0-1.65-.017-2.334h2.484a10.924,10.924,0,0,1,.1,1.18,2.826,2.826,0,0,1,2.687-1.395c1.861,0,3.07,1.258,3.07,3.586v5.893h-2.565v-5.609c0-1.041-.347-1.8-1.479-1.8-1.089,0-1.713.606-1.713,2.242v5.163h-2.566Z" fill="#0b1f5b"/>
      <path id="Path_474" data-name="Path 474" d="M1536.768,125.974h1.429v-2.509h2.565v2.509h1.815V127.9h-1.815v4.573c0,.7.214.976.979.976a4.645,4.645,0,0,0,.585-.029v1.765a5.863,5.863,0,0,1-1.725.177c-1.807,0-2.4-.967-2.4-2.588V127.9h-1.429Z" fill="#0b1f5b"/>
      <path id="Path_475" data-name="Path 475" d="M1546.21,131.155c0,1.158.582,2.291,1.859,2.291a1.462,1.462,0,0,0,1.616-.989h2.568a4.06,4.06,0,0,1-4.251,3c-3.052,0-4.375-2.282-4.375-4.712,0-2.907,1.491-4.982,4.467-4.982,3.181,0,4.263,2.3,4.263,4.615a5.629,5.629,0,0,1-.034.781Zm3.578-1.576c-.019-1.079-.449-1.986-1.7-1.986-1.229,0-1.724.847-1.826,1.986Z" fill="#0b1f5b"/>
      <path id="Path_476" data-name="Path 476" d="M1554.122,128.308c0-.787,0-1.65-.018-2.334h2.485a10.935,10.935,0,0,1,.1,1.18,2.829,2.829,0,0,1,2.688-1.395c1.861,0,3.07,1.258,3.07,3.586v5.893h-2.565v-5.609c0-1.041-.347-1.8-1.479-1.8-1.09,0-1.714.606-1.714,2.242v5.163h-2.565Z" fill="#0b1f5b"/>
      <path id="Path_477" data-name="Path 477" d="M1563.822,125.974h1.429v-2.509h2.565v2.509h1.815V127.9h-1.815v4.573c0,.7.215.976.979.976a4.661,4.661,0,0,0,.585-.029v1.765a5.862,5.862,0,0,1-1.725.177c-1.808,0-2.4-.967-2.4-2.588V127.9h-1.429Z" fill="#0b1f5b"/>
      <path id="Path_478" data-name="Path 478" d="M1573.113,132.453a1.6,1.6,0,0,0,1.754,1.152c.947,0,1.292-.339,1.292-.9,0-.6-.4-.829-1.725-1.154-3.018-.744-3.512-1.678-3.512-2.986,0-1.361.963-2.806,3.756-2.806,2.811,0,3.762,1.534,3.842,2.789h-2.439c-.082-.341-.311-.988-1.517-.988-.847,0-1.122.375-1.122.792,0,.461.288.683,1.792,1.034,3.091.719,3.528,1.779,3.528,3.136,0,1.535-1.167,2.931-3.992,2.931s-3.973-1.357-4.176-3Z" fill="#0b1f5b"/>
      <path id="Path_479" data-name="Path 479" d="M1585.113,122.9h5.1c2.622,0,4.4,1.476,4.4,3.822,0,2.68-2.03,3.91-4.465,3.91h-2.372v4.608h-2.67Zm2.67,5.608h2.036c1.235,0,2.108-.475,2.108-1.735s-.92-1.749-2.051-1.749h-2.093Z" fill="#0b1f5b"/>
      <path id="Path_480" data-name="Path 480" d="M1599.053,122.173v4.9a2.969,2.969,0,0,1,2.653-1.309c1.728,0,3.1,1.023,3.1,3.535v5.944h-2.549v-5.56c0-1.2-.427-1.845-1.5-1.845-1.426,0-1.705,1.061-1.705,2.49v4.915h-2.566V122.173Z" fill="#0b1f5b"/>
      <path id="Path_481" data-name="Path 481" d="M1608.812,125.974c.957,3.2,1.792,6.049,1.939,6.9h.018c.2-.934.742-3.01,1.849-6.9h2.554l-3.114,9.531c-.884,2.665-1.624,3.46-3.849,3.46a11.968,11.968,0,0,1-1.2-.069v-2.061c.173.02.456.038.663.038a1.619,1.619,0,0,0,1.764-1.351l-3.372-9.548Z" fill="#0b1f5b"/>
      <path id="Path_482" data-name="Path 482" d="M1618.306,132.453a1.6,1.6,0,0,0,1.754,1.152c.948,0,1.292-.339,1.292-.9,0-.6-.4-.829-1.724-1.154-3.019-.744-3.513-1.678-3.513-2.986,0-1.361.963-2.806,3.757-2.806,2.81,0,3.762,1.534,3.842,2.789h-2.44c-.082-.341-.31-.988-1.516-.988-.848,0-1.122.375-1.122.792,0,.461.288.683,1.792,1.034,3.09.719,3.528,1.779,3.528,3.136,0,1.535-1.167,2.931-3.992,2.931s-3.974-1.357-4.177-3Z" fill="#0b1f5b"/>
      <path id="Path_483" data-name="Path 483" d="M1625.655,122.173h2.565v2.288h-2.565Zm0,3.8h2.565v9.264h-2.565Z" fill="#0b1f5b"/>
      <path id="Path_484" data-name="Path 484" d="M1638.546,132.245a3.856,3.856,0,0,1-4.165,3.208c-2.884,0-4.367-2-4.367-4.78,0-2.735,1.669-4.914,4.49-4.914,3.124,0,3.991,2.241,4.042,3.289h-2.5a1.449,1.449,0,0,0-1.588-1.282c-1.172,0-1.837,1.028-1.837,2.824,0,1.973.7,2.871,1.826,2.871a1.576,1.576,0,0,0,1.583-1.216Z" fill="#0b1f5b"/>
      <path id="Path_485" data-name="Path 485" d="M1647.859,132.845a20.793,20.793,0,0,0,.125,2.393h-2.45a3.846,3.846,0,0,1-.13-.905,2.726,2.726,0,0,1-2.6,1.12,2.864,2.864,0,0,1-3.176-2.9c0-2.111,1.694-3.085,4.411-3.085h1.322V128.9c0-.658-.237-1.306-1.427-1.306-1.083,0-1.32.46-1.438,1.131h-2.439c.139-1.646,1.158-2.979,3.974-2.963,2.482.016,3.832.985,3.832,3.19Zm-2.5-1.824h-1.045c-1.546,0-2.119.472-2.119,1.365a1.189,1.189,0,0,0,1.334,1.235c1.63,0,1.83-1.133,1.83-2.357Z" fill="#0b1f5b"/>
      <path id="Path_486" data-name="Path 486" d="M1650.184,135.238V122.173h2.566v13.065Z" fill="#0b1f5b"/>
      <path id="Path_487" data-name="Path 487" d="M1562.319,148.041l-3.288,4.438c-1.427,1.936-2.424,3.4-5.138,3.4-2.765,0-4-1.755-4-3.438,0-1.789,1.2-2.826,3.41-3.88,1.259-.441,2.491-1.147,2.491-2.324a1.156,1.156,0,0,0-1.164-1.287,1.178,1.178,0,0,0-1.175,1.327c0,.743.618,1.337,1.33,2.01l7.6,7.413h-3.295l-6.53-6.408a4.106,4.106,0,0,1-1.45-2.826,3.253,3.253,0,0,1,3.51-3.285,3.115,3.115,0,0,1,3.43,3.009c0,1.626-1.23,2.587-3.478,3.633-1.595.644-2.056,1.521-2.056,2.31a1.541,1.541,0,0,0,1.675,1.593c1.308,0,1.833-.675,3.334-2.716l2.178-2.97Z" fill="#0b1f5b"/>
      <path id="Path_488" data-name="Path 488" d="M1444.456,171.535c0-2.105.034-4.466.088-5.86h-.086c-.579,2.517-1.814,6.628-3,10.489h-2.272c-.9-3.376-2.176-8.059-2.718-10.523h-.083c.106,1.447.158,3.987.158,6.1v4.42h-2.432v-12.34h3.971c.962,3.224,2.04,7.269,2.411,9.108h.02c.3-1.621,1.658-5.946,2.687-9.108h3.827v12.34h-2.574Z" fill="#0b1f5b"/>
      <path id="Path_489" data-name="Path 489" d="M1451.7,172.081c0,1.158.582,2.291,1.859,2.291a1.463,1.463,0,0,0,1.617-.99h2.567a4.06,4.06,0,0,1-4.251,3c-3.052,0-4.375-2.282-4.375-4.712,0-2.907,1.491-4.982,4.467-4.982,3.181,0,4.263,2.3,4.263,4.614a5.643,5.643,0,0,1-.034.782Zm3.578-1.576c-.018-1.079-.449-1.986-1.7-1.986-1.229,0-1.724.847-1.825,1.986Z" fill="#0b1f5b"/>
      <path id="Path_490" data-name="Path 490" d="M1459.612,169.234c0-.788,0-1.65-.018-2.335h2.485a10.966,10.966,0,0,1,.1,1.181,2.826,2.826,0,0,1,2.687-1.4c1.861,0,3.07,1.257,3.07,3.586v5.893h-2.565v-5.609c0-1.041-.347-1.8-1.479-1.8-1.089,0-1.713.606-1.713,2.242v5.163h-2.566Z" fill="#0b1f5b"/>
      <path id="Path_491" data-name="Path 491" d="M1469.312,166.9h1.429v-2.508h2.565V166.9h1.815v1.929h-1.815V173.4c0,.7.215.976.979.976a4.63,4.63,0,0,0,.585-.028v1.764a5.83,5.83,0,0,1-1.725.178c-1.807,0-2.4-.967-2.4-2.588v-4.874h-1.429Z" fill="#0b1f5b"/>
      <path id="Path_492" data-name="Path 492" d="M1484.4,173.771a21.04,21.04,0,0,0,.125,2.393h-2.45a3.846,3.846,0,0,1-.13-.9,2.726,2.726,0,0,1-2.6,1.12,2.864,2.864,0,0,1-3.176-2.9c0-2.111,1.694-3.085,4.411-3.085h1.322v-.566c0-.658-.237-1.306-1.426-1.306-1.083,0-1.321.46-1.439,1.13h-2.438c.138-1.646,1.157-2.978,3.973-2.962,2.482.016,3.832.985,3.832,3.19Zm-2.5-1.824h-1.045c-1.546,0-2.119.471-2.119,1.365a1.19,1.19,0,0,0,1.334,1.235c1.63,0,1.83-1.133,1.83-2.357Z" fill="#0b1f5b"/>
      <path id="Path_493" data-name="Path 493" d="M1486.721,176.164V163.1h2.566v13.065Z" fill="#0b1f5b"/>
      <path id="Path_494" data-name="Path 494" d="M1506.718,172.36c-.5,2.3-2.232,3.979-5.323,3.979-3.912,0-5.762-2.77-5.762-6.28,0-3.383,1.909-6.414,5.89-6.414,3.286,0,4.879,1.929,5.181,3.992h-2.668a2.421,2.421,0,0,0-2.6-1.9c-2.2,0-3.05,1.979-3.05,4.224,0,2.087.738,4.284,3.123,4.284a2.452,2.452,0,0,0,2.522-1.886Z" fill="#0b1f5b"/>
      <path id="Path_495" data-name="Path 495" d="M1517.293,171.514c0,2.8-1.678,4.865-4.613,4.865-2.873,0-4.549-2.05-4.549-4.816,0-2.858,1.728-4.878,4.671-4.878C1515.528,166.685,1517.293,168.609,1517.293,171.514Zm-6.56.018c0,1.783.768,2.84,2,2.84,1.256,0,1.953-1.058,1.953-2.824,0-1.939-.711-2.856-1.989-2.856C1511.511,168.692,1510.733,169.573,1510.733,171.532Z" fill="#0b1f5b"/>
      <path id="Path_496" data-name="Path 496" d="M1519.073,169.234c0-.788,0-1.65-.018-2.335h2.485a10.7,10.7,0,0,1,.1,1.181,2.829,2.829,0,0,1,2.688-1.4c1.861,0,3.07,1.257,3.07,3.586v5.893h-2.565v-5.609c0-1.041-.347-1.8-1.479-1.8-1.09,0-1.714.606-1.714,2.242v5.163h-2.565Z" fill="#0b1f5b"/>
      <path id="Path_497" data-name="Path 497" d="M1538.175,163.1v10.519c0,.843,0,1.7.018,2.546h-2.467c-.05-.278-.1-.757-.116-.968a2.788,2.788,0,0,1-2.629,1.183c-2.343,0-3.833-1.881-3.833-4.771,0-2.851,1.584-4.923,4.207-4.923,1.333,0,2.049.47,2.255.885V163.1Zm-6.392,8.442c0,1.806.7,2.783,1.959,2.783,1.764,0,1.967-1.471,1.967-2.8,0-1.584-.224-2.783-1.9-2.783C1532.462,168.739,1531.783,169.791,1531.783,171.541Z" fill="#0b1f5b"/>
      <path id="Path_498" data-name="Path 498" d="M1540.453,163.1h2.565v2.288h-2.565Zm0,3.8h2.565v9.265h-2.565Z" fill="#0b1f5b"/>
      <path id="Path_499" data-name="Path 499" d="M1544.422,166.9h1.428v-2.508h2.566V166.9h1.814v1.929h-1.814V173.4c0,.7.215.976.978.976a4.63,4.63,0,0,0,.585-.028v1.764a5.827,5.827,0,0,1-1.724.178c-1.808,0-2.405-.967-2.405-2.588v-4.874h-1.428Z" fill="#0b1f5b"/>
      <path id="Path_500" data-name="Path 500" d="M1551.822,163.1h2.565v2.288h-2.565Zm0,3.8h2.565v9.265h-2.565Z" fill="#0b1f5b"/>
      <path id="Path_501" data-name="Path 501" d="M1565.312,171.514c0,2.8-1.677,4.865-4.612,4.865-2.873,0-4.55-2.05-4.55-4.816,0-2.858,1.729-4.878,4.671-4.878C1563.548,166.685,1565.312,168.609,1565.312,171.514Zm-6.559.018c0,1.783.767,2.84,2,2.84,1.255,0,1.953-1.058,1.953-2.824,0-1.939-.711-2.856-1.99-2.856C1559.53,168.692,1558.753,169.573,1558.753,171.532Z" fill="#0b1f5b"/>
      <path id="Path_502" data-name="Path 502" d="M1567.093,169.234c0-.788,0-1.65-.018-2.335h2.484a10.935,10.935,0,0,1,.1,1.181,2.826,2.826,0,0,1,2.687-1.4c1.862,0,3.071,1.257,3.071,3.586v5.893h-2.566v-5.609c0-1.041-.346-1.8-1.478-1.8-1.09,0-1.714.606-1.714,2.242v5.163h-2.565Z" fill="#0b1f5b"/>
      <path id="Path_503" data-name="Path 503" d="M1577.694,163.1h2.566v2.288h-2.566Zm0,3.8h2.566v9.265h-2.566Z" fill="#0b1f5b"/>
      <path id="Path_504" data-name="Path 504" d="M1582.58,169.234c0-.788,0-1.65-.018-2.335h2.485a10.976,10.976,0,0,1,.1,1.181,2.829,2.829,0,0,1,2.688-1.4c1.861,0,3.07,1.257,3.07,3.586v5.893h-2.565v-5.609c0-1.041-.347-1.8-1.479-1.8-1.09,0-1.714.606-1.714,2.242v5.163h-2.565Z" fill="#0b1f5b"/>
      <path id="Path_505" data-name="Path 505" d="M1601.61,175.036c0,2.974-1.1,4.855-4.606,4.855-3.383,0-4.05-1.89-4.139-2.934h2.615a1.475,1.475,0,0,0,1.638,1.069c1.665,0,1.978-1.015,1.978-2.831v-.443a2.74,2.74,0,0,1-2.61,1.3c-2.441,0-3.831-2-3.831-4.491,0-2.9,1.733-4.878,4.051-4.878,1.589,0,2.251.749,2.39,1.181.019-.251.083-.815.1-.967h2.433c-.016.827-.021,1.768-.021,2.659Zm-6.32-3.587c0,1.594.8,2.534,1.931,2.534,1.544,0,1.957-1.06,1.957-2.614s-.275-2.63-1.9-2.63C1596.162,168.739,1595.29,169.6,1595.29,171.449Z" fill="#0b1f5b"/>
      <path id="Path_506" data-name="Path 506" d="M1608.54,163.824h5.1c2.622,0,4.4,1.476,4.4,3.822,0,2.68-2.031,3.91-4.465,3.91h-2.372v4.608h-2.67Zm2.67,5.608h2.036c1.235,0,2.107-.475,2.107-1.735s-.92-1.749-2.05-1.749h-2.093Z" fill="#0b1f5b"/>
      <path id="Path_507" data-name="Path 507" d="M1619.914,169.413c0-.921,0-1.739-.018-2.514h2.516c.033.208.067,1.128.067,1.627a2.965,2.965,0,0,1,2.973-1.841v2.447c-1.861-.048-2.973.453-2.973,2.993v4.039h-2.565Z" fill="#0b1f5b"/>
      <path id="Path_508" data-name="Path 508" d="M1635.589,171.514c0,2.8-1.678,4.865-4.613,4.865-2.873,0-4.549-2.05-4.549-4.816,0-2.858,1.728-4.878,4.67-4.878C1633.824,166.685,1635.589,168.609,1635.589,171.514Zm-6.56.018c0,1.783.768,2.84,2,2.84,1.256,0,1.953-1.058,1.953-2.824,0-1.939-.711-2.856-1.989-2.856C1629.806,168.692,1629.029,169.573,1629.029,171.532Z" fill="#0b1f5b"/>
      <path id="Path_509" data-name="Path 509" d="M1645.782,175.036c0,2.974-1.1,4.855-4.606,4.855-3.383,0-4.05-1.89-4.139-2.934h2.615a1.475,1.475,0,0,0,1.638,1.069c1.665,0,1.978-1.015,1.978-2.831v-.443a2.74,2.74,0,0,1-2.61,1.3c-2.441,0-3.831-2-3.831-4.491,0-2.9,1.733-4.878,4.051-4.878,1.589,0,2.251.749,2.39,1.181.019-.251.083-.815.1-.967h2.433c-.016.827-.021,1.768-.021,2.659Zm-6.32-3.587c0,1.594.8,2.534,1.931,2.534,1.544,0,1.956-1.06,1.956-2.614s-.274-2.63-1.9-2.63C1640.334,168.739,1639.462,169.6,1639.462,171.449Z" fill="#0b1f5b"/>
      <path id="Path_510" data-name="Path 510" d="M1648.06,169.413c0-.921,0-1.739-.017-2.514h2.515c.034.208.068,1.128.068,1.627a2.964,2.964,0,0,1,2.972-1.841v2.447c-1.861-.048-2.972.453-2.972,2.993v4.039h-2.566Z" fill="#0b1f5b"/>
      <path id="Path_511" data-name="Path 511" d="M1662.8,173.771a20.808,20.808,0,0,0,.125,2.393h-2.451a3.8,3.8,0,0,1-.129-.9,2.726,2.726,0,0,1-2.6,1.12,2.865,2.865,0,0,1-3.176-2.9c0-2.111,1.7-3.085,4.411-3.085h1.323v-.566c0-.658-.238-1.306-1.427-1.306-1.083,0-1.32.46-1.439,1.13h-2.438c.139-1.646,1.157-2.978,3.974-2.962,2.481.016,3.832.985,3.832,3.19Zm-2.5-1.824h-1.045c-1.546,0-2.119.471-2.119,1.365a1.19,1.19,0,0,0,1.334,1.235c1.629,0,1.83-1.133,1.83-2.357Z" fill="#0b1f5b"/>
      <path id="Path_512" data-name="Path 512" d="M1665.124,169.287c0-.8,0-1.6-.018-2.388h2.452c.035.226.086.744.1,1.1a2.89,2.89,0,0,1,2.574-1.319,2.45,2.45,0,0,1,2.391,1.409,3.213,3.213,0,0,1,2.854-1.409c1.615,0,2.936.992,2.936,3.4v6.078h-2.5V170.4c0-.836-.3-1.654-1.354-1.654-1.089,0-1.515.7-1.515,2.124v5.3h-2.516v-5.669c0-.96-.236-1.736-1.331-1.736-1.043,0-1.537.641-1.537,2.231v5.174h-2.534Z" fill="#0b1f5b"/>
    </g>
    <path id="Path_397" data-name="Path 397" d="M1401.812,595.545a174.6,174.6,0,1,1,123.46-51.139A173.455,173.455,0,0,1,1401.812,595.545Z" transform="translate(-839.289 2198.201)" fill="#edf6ed"/>
    <path id="Path_398" data-name="Path 398" d="M1401.812,587.018a164.987,164.987,0,0,1-117.432-48.642c-64.752-64.751-64.752-170.111,0-234.862a166.073,166.073,0,1,1,117.432,283.5Z" transform="translate(-839.289 2198.201)" fill="#e6f1e1"/>
    <circle id="Ellipse_35" data-name="Ellipse 35" cx="157.547" cy="157.547" r="157.547" transform="translate(404.976 2461.201)" fill="#c7e3c6"/>
    <g id="Group_33" data-name="Group 33" transform="translate(-839.289 2201.266)">
      <path id="Path_423" data-name="Path 423" d="M1318.953,305.1h8.613v2.187h-6.009v3.023h5.628V312.5h-5.628v4.942h-2.6Z" fill="#03a677"/>
      <path id="Path_424" data-name="Path 424" d="M1337.783,312.793c0,2.8-1.678,4.865-4.612,4.865-2.873,0-4.55-2.05-4.55-4.815,0-2.859,1.728-4.879,4.671-4.879C1336.018,307.964,1337.783,309.889,1337.783,312.793Zm-6.56.018c0,1.783.768,2.84,2,2.84,1.256,0,1.953-1.057,1.953-2.824,0-1.939-.71-2.856-1.989-2.856C1332,309.971,1331.223,310.853,1331.223,312.811Z" fill="#03a677"/>
      <path id="Path_425" data-name="Path 425" d="M1348.168,312.793c0,2.8-1.678,4.865-4.613,4.865-2.873,0-4.549-2.05-4.549-4.815,0-2.859,1.728-4.879,4.671-4.879C1346.4,307.964,1348.168,309.889,1348.168,312.793Zm-6.56.018c0,1.783.768,2.84,2,2.84,1.256,0,1.953-1.057,1.953-2.824,0-1.939-.711-2.856-1.989-2.856C1342.386,309.971,1341.608,310.853,1341.608,312.811Z" fill="#03a677"/>
      <path id="Path_426" data-name="Path 426" d="M1358.432,304.378V314.9c0,.844,0,1.7.019,2.546h-2.467c-.051-.277-.1-.756-.116-.967a2.789,2.789,0,0,1-2.629,1.182c-2.343,0-3.833-1.881-3.833-4.771,0-2.851,1.584-4.923,4.207-4.923,1.333,0,2.049.471,2.255.886v-4.472Zm-6.391,8.442c0,1.806.7,2.784,1.959,2.784,1.763,0,1.967-1.472,1.967-2.8,0-1.584-.224-2.782-1.9-2.782C1352.719,310.019,1352.041,311.07,1352.041,312.82Z" fill="#03a677"/>
      <path id="Path_427" data-name="Path 427" d="M1375.837,313.639c-.5,2.3-2.232,3.979-5.323,3.979-3.912,0-5.762-2.769-5.762-6.28,0-3.382,1.909-6.414,5.89-6.414,3.286,0,4.879,1.93,5.181,3.992h-2.668a2.421,2.421,0,0,0-2.6-1.9c-2.2,0-3.049,1.979-3.049,4.225,0,2.086.737,4.284,3.122,4.284a2.453,2.453,0,0,0,2.522-1.887Z" fill="#03a677"/>
      <path id="Path_428" data-name="Path 428" d="M1386.412,312.793c0,2.8-1.678,4.865-4.612,4.865-2.873,0-4.55-2.05-4.55-4.815,0-2.859,1.728-4.879,4.671-4.879C1384.647,307.964,1386.412,309.889,1386.412,312.793Zm-6.56.018c0,1.783.768,2.84,2,2.84,1.256,0,1.953-1.057,1.953-2.824,0-1.939-.711-2.856-1.989-2.856C1380.63,309.971,1379.852,310.853,1379.852,312.811Z" fill="#03a677"/>
      <path id="Path_429" data-name="Path 429" d="M1396.8,312.793c0,2.8-1.678,4.865-4.613,4.865-2.873,0-4.549-2.05-4.549-4.815,0-2.859,1.728-4.879,4.67-4.879C1395.032,307.964,1396.8,309.889,1396.8,312.793Zm-6.56.018c0,1.783.768,2.84,2,2.84,1.256,0,1.953-1.057,1.953-2.824,0-1.939-.711-2.856-1.989-2.856C1391.014,309.971,1390.237,310.853,1390.237,312.811Z" fill="#03a677"/>
      <path id="Path_430" data-name="Path 430" d="M1398.561,310.692c0-.921,0-1.738-.017-2.513h2.515c.034.208.068,1.127.068,1.627a2.966,2.966,0,0,1,2.972-1.842v2.448c-1.861-.048-2.972.453-2.972,2.992v4.039h-2.566Z" fill="#03a677"/>
      <path id="Path_431" data-name="Path 431" d="M1414.116,304.378V314.9c0,.844,0,1.7.019,2.546h-2.467c-.051-.277-.1-.756-.116-.967a2.791,2.791,0,0,1-2.629,1.182c-2.343,0-3.833-1.881-3.833-4.771,0-2.851,1.584-4.923,4.207-4.923,1.333,0,2.048.471,2.255.886v-4.472Zm-6.392,8.442c0,1.806.7,2.784,1.959,2.784,1.764,0,1.967-1.472,1.967-2.8,0-1.584-.223-2.782-1.9-2.782C1408.4,310.019,1407.724,311.07,1407.724,312.82Z" fill="#03a677"/>
      <path id="Path_432" data-name="Path 432" d="M1416.394,304.378h2.566v2.288h-2.566Zm0,3.8h2.566v9.264h-2.566Z" fill="#03a677"/>
      <path id="Path_433" data-name="Path 433" d="M1421.28,310.513c0-.787,0-1.65-.018-2.334h2.485a10.683,10.683,0,0,1,.1,1.18,2.829,2.829,0,0,1,2.688-1.4c1.861,0,3.07,1.258,3.07,3.586v5.893h-2.565v-5.609c0-1.041-.347-1.8-1.479-1.8-1.09,0-1.714.606-1.714,2.241v5.163h-2.565Z" fill="#03a677"/>
      <path id="Path_434" data-name="Path 434" d="M1439.565,315.05a20.792,20.792,0,0,0,.125,2.393h-2.45a3.846,3.846,0,0,1-.13-.9,2.725,2.725,0,0,1-2.6,1.12,2.864,2.864,0,0,1-3.176-2.9c0-2.111,1.694-3.085,4.411-3.085h1.322V311.1c0-.658-.237-1.306-1.427-1.306-1.083,0-1.32.46-1.438,1.131h-2.438c.138-1.646,1.157-2.979,3.973-2.963,2.482.016,3.832.985,3.832,3.191Zm-2.5-1.824h-1.045c-1.546,0-2.119.472-2.119,1.365a1.189,1.189,0,0,0,1.334,1.235c1.63,0,1.83-1.133,1.83-2.357Z" fill="#03a677"/>
      <path id="Path_435" data-name="Path 435" d="M1440.989,308.179h1.429V305.67h2.565v2.509h1.815v1.928h-1.815v4.573c0,.7.215.976.979.976a4.666,4.666,0,0,0,.585-.029v1.765a5.862,5.862,0,0,1-1.725.177c-1.808,0-2.4-.967-2.4-2.588v-4.874h-1.429Z" fill="#03a677"/>
      <path id="Path_436" data-name="Path 436" d="M1450.43,313.36c0,1.159.582,2.291,1.86,2.291a1.462,1.462,0,0,0,1.616-.989h2.567a4.059,4.059,0,0,1-4.251,3c-3.051,0-4.375-2.282-4.375-4.712,0-2.906,1.492-4.982,4.467-4.982,3.182,0,4.264,2.3,4.264,4.615a5.628,5.628,0,0,1-.034.781Zm3.579-1.576c-.019-1.078-.45-1.986-1.7-1.986-1.228,0-1.723.848-1.825,1.986Z" fill="#03a677"/>
      <path id="Path_437" data-name="Path 437" d="M1357.008,334.29c.281,1.239,1.17,1.782,2.6,1.782s2.033-.563,2.033-1.466c0-1-.594-1.439-2.705-1.931-3.358-.789-4.188-2.009-4.188-3.675,0-2.152,1.609-3.612,4.53-3.612,3.277,0,4.581,1.761,4.758,3.566h-2.688c-.128-.759-.548-1.584-2.139-1.584-1.083,0-1.737.447-1.737,1.324,0,.857.524,1.206,2.518,1.668,3.589.846,4.376,2.18,4.376,3.921,0,2.253-1.7,3.8-4.967,3.8-3.133,0-4.782-1.542-5.078-3.792Z" fill="#03a677"/>
      <path id="Path_438" data-name="Path 438" d="M1374.412,335.214c0,.894,0,1.865.018,2.693h-2.513c-.036-.248-.054-.744-.07-1.069a2.642,2.642,0,0,1-2.55,1.284c-1.888,0-3.093-1.148-3.093-3.445v-6.035h2.562v5.521c0,1.023.318,1.868,1.428,1.868,1.169,0,1.653-.623,1.653-2.458v-4.931h2.565Z" fill="#03a677"/>
      <path id="Path_439" data-name="Path 439" d="M1379.277,337.086v4.369h-2.55v-10.58c0-.75,0-1.49-.017-2.233h2.484a10.693,10.693,0,0,1,.083,1.154,2.932,2.932,0,0,1,2.693-1.369c2.081,0,3.69,1.741,3.69,4.615,0,3.269-1.8,5.08-4.041,5.08A2.565,2.565,0,0,1,1379.277,337.086Zm3.78-3.945c0-1.7-.687-2.657-1.908-2.657-1.456,0-1.973.935-1.973,2.8,0,1.768.477,2.8,1.864,2.8C1382.4,336.083,1383.057,335.028,1383.057,333.141Z" fill="#03a677"/>
      <path id="Path_440" data-name="Path 440" d="M1389.984,337.086v4.369h-2.55v-10.58c0-.75,0-1.49-.017-2.233h2.484a10.693,10.693,0,0,1,.083,1.154,2.933,2.933,0,0,1,2.694-1.369c2.08,0,3.689,1.741,3.689,4.615,0,3.269-1.8,5.08-4.041,5.08A2.565,2.565,0,0,1,1389.984,337.086Zm3.78-3.945c0-1.7-.687-2.657-1.908-2.657-1.456,0-1.973.935-1.973,2.8,0,1.768.477,2.8,1.864,2.8C1393.1,336.083,1393.764,335.028,1393.764,333.141Z" fill="#03a677"/>
      <path id="Path_441" data-name="Path 441" d="M1406.761,333.256c0,2.8-1.677,4.866-4.612,4.866-2.873,0-4.55-2.05-4.55-4.816,0-2.859,1.729-4.879,4.671-4.879C1405,328.427,1406.761,330.352,1406.761,333.256Zm-6.559.019c0,1.783.767,2.84,2,2.84,1.256,0,1.953-1.058,1.953-2.824,0-1.939-.711-2.856-1.989-2.856C1400.979,330.435,1400.2,331.316,1400.2,333.275Z" fill="#03a677"/>
      <path id="Path_442" data-name="Path 442" d="M1408.526,331.156c0-.921,0-1.739-.017-2.514h2.515c.033.208.068,1.127.068,1.627a2.966,2.966,0,0,1,2.972-1.842v2.448c-1.861-.047-2.972.453-2.972,2.993v4.039h-2.566Z" fill="#03a677"/>
      <path id="Path_443" data-name="Path 443" d="M1414.679,328.642h1.429v-2.509h2.566v2.509h1.814v1.929h-1.814v4.572c0,.7.213.977.978.977a4.478,4.478,0,0,0,.585-.03v1.765a5.829,5.829,0,0,1-1.725.177c-1.807,0-2.4-.967-2.4-2.587v-4.874h-1.429Z" fill="#03a677"/>
    </g>
    <path id="Path_395" data-name="Path 395" d="M1716.905,595.546a173.459,173.459,0,0,1-123.461-51.14c-68.077-68.076-68.077-178.845,0-246.922a174.6,174.6,0,0,1,246.921,0c68.077,68.076,68.077,178.844,0,246.921A173.458,173.458,0,0,1,1716.905,595.546Z" transform="translate(-839.289 2198.201)" fill="#fdf3f6"/>
    <path id="Path_396" data-name="Path 396" d="M1716.905,587.019a164.987,164.987,0,0,1-117.432-48.642c-64.752-64.752-64.752-170.111,0-234.863a166.073,166.073,0,0,1,234.863,0c64.752,64.752,64.752,170.111,0,234.863A164.987,164.987,0,0,1,1716.905,587.019Z" transform="translate(-839.289 2198.201)" fill="#fbe3ea"/>
    <circle id="Ellipse_34" data-name="Ellipse 34" cx="157.547" cy="157.547" r="157.547" transform="translate(720.069 2461.201)" fill="#f9d6e0"/>
    <g id="Group_32" data-name="Group 32" transform="translate(-839.289 2181.026)">
      <path id="Path_399" data-name="Path 399" d="M1680.932,521.188c0-2.1.035-4.465.088-5.86h-.086c-.579,2.518-1.813,6.629-3,10.489h-2.271c-.9-3.376-2.176-8.058-2.718-10.522h-.083c.1,1.447.157,3.986.157,6.1v4.42h-2.431V513.478h3.97c.962,3.224,2.04,7.268,2.411,9.108h.021c.3-1.622,1.657-5.946,2.686-9.108h3.828v12.339h-2.575Z" fill="#eb6d9c"/>
      <path id="Path_400" data-name="Path 400" d="M1688.177,521.734c0,1.159.582,2.291,1.859,2.291a1.461,1.461,0,0,0,1.616-.989h2.567a4.058,4.058,0,0,1-4.25,3c-3.052,0-4.375-2.281-4.375-4.712,0-2.906,1.491-4.981,4.466-4.981,3.182,0,4.264,2.3,4.264,4.614a5.642,5.642,0,0,1-.034.781Zm3.578-1.576c-.019-1.078-.45-1.986-1.7-1.986-1.228,0-1.723.848-1.825,1.986Z" fill="#eb6d9c"/>
      <path id="Path_401" data-name="Path 401" d="M1704.573,512.752v10.519c0,.844,0,1.7.019,2.546h-2.467c-.051-.277-.1-.756-.116-.967a2.792,2.792,0,0,1-2.629,1.182c-2.343,0-3.833-1.881-3.833-4.77,0-2.852,1.584-4.923,4.207-4.923,1.333,0,2.049.47,2.255.885v-4.472Zm-6.392,8.442c0,1.806.7,2.784,1.959,2.784,1.764,0,1.967-1.471,1.967-2.8,0-1.584-.223-2.783-1.9-2.783C1698.86,518.393,1698.181,519.444,1698.181,521.194Z" fill="#eb6d9c"/>
      <path id="Path_402" data-name="Path 402" d="M1706.851,512.752h2.566v2.288h-2.566Zm0,3.8h2.566v9.264h-2.566Z" fill="#eb6d9c"/>
      <path id="Path_403" data-name="Path 403" d="M1719.742,522.824a3.854,3.854,0,0,1-4.165,3.208c-2.884,0-4.366-1.995-4.366-4.779,0-2.736,1.669-4.914,4.489-4.914,3.124,0,3.991,2.24,4.042,3.289h-2.5a1.448,1.448,0,0,0-1.588-1.282c-1.172,0-1.837,1.027-1.837,2.824,0,1.972.7,2.871,1.826,2.871a1.576,1.576,0,0,0,1.583-1.217Z" fill="#eb6d9c"/>
      <path id="Path_404" data-name="Path 404" d="M1729.055,523.424a20.98,20.98,0,0,0,.125,2.393h-2.45a3.845,3.845,0,0,1-.13-.905,2.722,2.722,0,0,1-2.6,1.12,2.864,2.864,0,0,1-3.176-2.9c0-2.11,1.694-3.084,4.411-3.084h1.322v-.566c0-.659-.237-1.307-1.426-1.307-1.083,0-1.321.46-1.438,1.131h-2.439c.138-1.646,1.157-2.979,3.973-2.962,2.482.015,3.832.984,3.832,3.189Zm-2.5-1.823h-1.044c-1.546,0-2.12.471-2.12,1.364a1.189,1.189,0,0,0,1.334,1.235c1.63,0,1.83-1.133,1.83-2.356Z" fill="#eb6d9c"/>
      <path id="Path_405" data-name="Path 405" d="M1731.381,525.817V512.752h2.565v13.065Z" fill="#eb6d9c"/>
      <path id="Path_406" data-name="Path 406" d="M1751.377,522.014c-.5,2.3-2.232,3.978-5.323,3.978-3.912,0-5.762-2.769-5.762-6.279,0-3.383,1.909-6.414,5.89-6.414,3.287,0,4.879,1.929,5.181,3.991h-2.668a2.42,2.42,0,0,0-2.6-1.9c-2.2,0-3.049,1.978-3.049,4.224,0,2.086.737,4.283,3.122,4.283a2.453,2.453,0,0,0,2.522-1.885Z" fill="#eb6d9c"/>
      <path id="Path_407" data-name="Path 407" d="M1761.952,521.168c0,2.8-1.678,4.864-4.612,4.864-2.873,0-4.55-2.05-4.55-4.815,0-2.859,1.728-4.878,4.671-4.878C1760.187,516.339,1761.952,518.263,1761.952,521.168Zm-6.56.018c0,1.783.768,2.839,2,2.839,1.256,0,1.953-1.057,1.953-2.824,0-1.938-.711-2.855-1.989-2.855C1756.17,518.346,1755.392,519.227,1755.392,521.186Z" fill="#eb6d9c"/>
      <path id="Path_408" data-name="Path 408" d="M1772.337,521.168c0,2.8-1.678,4.864-4.613,4.864-2.873,0-4.549-2.05-4.549-4.815,0-2.859,1.728-4.878,4.67-4.878C1770.572,516.339,1772.337,518.263,1772.337,521.168Zm-6.56.018c0,1.783.768,2.839,2,2.839,1.256,0,1.953-1.057,1.953-2.824,0-1.938-.711-2.855-1.989-2.855C1766.554,518.346,1765.777,519.227,1765.777,521.186Z" fill="#eb6d9c"/>
      <path id="Path_409" data-name="Path 409" d="M1774.1,519.066c0-.92,0-1.738-.017-2.513h2.515c.034.208.068,1.128.068,1.627a2.964,2.964,0,0,1,2.972-1.841v2.447c-1.861-.048-2.972.453-2.972,2.992v4.039H1774.1Z" fill="#eb6d9c"/>
      <path id="Path_410" data-name="Path 410" d="M1789.656,512.752v10.519c0,.844,0,1.7.019,2.546h-2.467c-.051-.277-.1-.756-.116-.967a2.792,2.792,0,0,1-2.629,1.182c-2.343,0-3.833-1.881-3.833-4.77,0-2.852,1.584-4.923,4.207-4.923,1.333,0,2.049.47,2.255.885v-4.472Zm-6.392,8.442c0,1.806.7,2.784,1.959,2.784,1.764,0,1.967-1.471,1.967-2.8,0-1.584-.223-2.783-1.9-2.783C1783.943,518.393,1783.264,519.444,1783.264,521.194Z" fill="#eb6d9c"/>
      <path id="Path_411" data-name="Path 411" d="M1791.934,512.752h2.566v2.288h-2.566Zm0,3.8h2.566v9.264h-2.566Z" fill="#eb6d9c"/>
      <path id="Path_412" data-name="Path 412" d="M1796.82,518.888c0-.788,0-1.651-.017-2.335h2.484a10.946,10.946,0,0,1,.1,1.18,2.826,2.826,0,0,1,2.687-1.394c1.861,0,3.07,1.257,3.07,3.585v5.893h-2.565v-5.608c0-1.042-.347-1.8-1.479-1.8-1.089,0-1.713.606-1.713,2.241v5.163h-2.566Z" fill="#eb6d9c"/>
      <path id="Path_413" data-name="Path 413" d="M1815.1,523.424a21.009,21.009,0,0,0,.125,2.393h-2.45a3.839,3.839,0,0,1-.13-.905,2.724,2.724,0,0,1-2.6,1.12,2.864,2.864,0,0,1-3.176-2.9c0-2.11,1.694-3.084,4.411-3.084h1.322v-.566c0-.659-.237-1.307-1.426-1.307-1.083,0-1.321.46-1.439,1.131H1807.3c.138-1.646,1.157-2.979,3.973-2.962,2.482.015,3.832.984,3.832,3.189Zm-2.5-1.823h-1.045c-1.546,0-2.119.471-2.119,1.364a1.189,1.189,0,0,0,1.334,1.235c1.63,0,1.83-1.133,1.83-2.356Z" fill="#eb6d9c"/>
      <path id="Path_414" data-name="Path 414" d="M1816.529,516.553h1.429v-2.508h2.565v2.508h1.815v1.928h-1.815v4.573c0,.7.215.976.979.976a4.842,4.842,0,0,0,.585-.028v1.764a5.862,5.862,0,0,1-1.725.177c-1.808,0-2.4-.966-2.4-2.588v-4.874h-1.429Z" fill="#eb6d9c"/>
      <path id="Path_415" data-name="Path 415" d="M1825.97,521.734c0,1.159.583,2.291,1.86,2.291a1.461,1.461,0,0,0,1.616-.989h2.567a4.059,4.059,0,0,1-4.251,3c-3.051,0-4.375-2.281-4.375-4.712,0-2.906,1.492-4.981,4.467-4.981,3.182,0,4.264,2.3,4.264,4.614a5.622,5.622,0,0,1-.034.781Zm3.579-1.576c-.019-1.078-.45-1.986-1.7-1.986-1.228,0-1.723.848-1.825,1.986Z" fill="#eb6d9c"/>
      <path id="Path_416" data-name="Path 416" d="M1720.6,542.663c.282,1.239,1.171,1.782,2.6,1.782s2.033-.562,2.033-1.466c0-1-.594-1.439-2.705-1.93-3.358-.789-4.188-2.01-4.188-3.676,0-2.151,1.609-3.611,4.53-3.611,3.276,0,4.581,1.76,4.758,3.565h-2.688c-.129-.759-.549-1.584-2.139-1.584-1.083,0-1.737.447-1.737,1.324,0,.858.524,1.206,2.518,1.668,3.589.846,4.376,2.181,4.376,3.921,0,2.253-1.7,3.8-4.967,3.8-3.133,0-4.782-1.542-5.078-3.792Z" fill="#eb6d9c"/>
      <path id="Path_417" data-name="Path 417" d="M1738,543.588c0,.893,0,1.864.018,2.692h-2.513c-.037-.248-.054-.744-.07-1.068a2.642,2.642,0,0,1-2.55,1.283c-1.888,0-3.093-1.147-3.093-3.444v-6.035h2.562v5.52c0,1.024.318,1.868,1.428,1.868,1.169,0,1.653-.623,1.653-2.458v-4.93H1738Z" fill="#eb6d9c"/>
      <path id="Path_418" data-name="Path 418" d="M1742.866,545.46v4.368h-2.55V539.249c0-.75,0-1.49-.017-2.233h2.484a10.675,10.675,0,0,1,.083,1.154,2.929,2.929,0,0,1,2.693-1.369c2.08,0,3.69,1.741,3.69,4.614,0,3.27-1.8,5.08-4.041,5.08A2.565,2.565,0,0,1,1742.866,545.46Zm3.78-3.945c0-1.7-.687-2.658-1.908-2.658-1.456,0-1.974.936-1.974,2.8,0,1.769.478,2.8,1.865,2.8C1745.986,544.456,1746.646,543.4,1746.646,541.515Z" fill="#eb6d9c"/>
      <path id="Path_419" data-name="Path 419" d="M1753.573,545.46v4.368h-2.55V539.249c0-.75,0-1.49-.017-2.233h2.484a10.675,10.675,0,0,1,.083,1.154,2.929,2.929,0,0,1,2.693-1.369c2.08,0,3.69,1.741,3.69,4.614,0,3.27-1.8,5.08-4.041,5.08A2.565,2.565,0,0,1,1753.573,545.46Zm3.78-3.945c0-1.7-.687-2.658-1.908-2.658-1.456,0-1.974.936-1.974,2.8,0,1.769.478,2.8,1.865,2.8C1756.693,544.456,1757.353,543.4,1757.353,541.515Z" fill="#eb6d9c"/>
      <path id="Path_420" data-name="Path 420" d="M1770.35,541.63c0,2.8-1.677,4.865-4.612,4.865-2.873,0-4.55-2.05-4.55-4.815,0-2.86,1.729-4.879,4.671-4.879C1768.586,536.8,1770.35,538.726,1770.35,541.63Zm-6.559.018c0,1.784.767,2.84,2,2.84,1.256,0,1.953-1.057,1.953-2.824,0-1.938-.711-2.855-1.989-2.855C1764.568,538.809,1763.791,539.689,1763.791,541.648Z" fill="#eb6d9c"/>
      <path id="Path_421" data-name="Path 421" d="M1772.115,539.529c0-.921,0-1.738-.018-2.513h2.516c.033.208.067,1.127.067,1.627a2.968,2.968,0,0,1,2.973-1.842v2.448c-1.861-.048-2.973.452-2.973,2.992v4.039h-2.565Z" fill="#eb6d9c"/>
      <path id="Path_422" data-name="Path 422" d="M1778.268,537.016h1.429v-2.509h2.565v2.509h1.815v1.928h-1.815v4.573c0,.7.214.976.979.976a4.639,4.639,0,0,0,.585-.029v1.765a5.862,5.862,0,0,1-1.725.176c-1.807,0-2.4-.967-2.4-2.587v-4.874h-1.429Z" fill="#eb6d9c"/>
    </g>
    <circle id="Ellipse_51" data-name="Ellipse 51" cx="135.54" cy="135.54" r="135.54" transform="translate(584.479 2483.606)" fill="#fff"/>
    <g id="Group_53" data-name="Group 53" transform="translate(237.386 2198.201)">
      <path id="Path_513" data-name="Path 513" d="M1487.256,432.818h-2.042l-6.109-17.636-5.936,17.636h-2.042l-9.181-28.344h5.173l5.249,16.873,5.669-16.873h2.176l5.687,16.873,5.231-16.873h5.172Z" transform="translate(-1076.675 2.767)" fill="#0b1f5b"/>
      <path id="Path_514" data-name="Path 514" d="M1517.222,423.676h-14.6a5.18,5.18,0,0,0,1.68,3.8,6.084,6.084,0,0,0,4.161,1.355,6.726,6.726,0,0,0,4.963-1.7l1.851,3.646q-2.522,2.043-7.52,2.042a9.955,9.955,0,0,1-7.4-2.739q-2.719-2.739-2.721-7.644a10.6,10.6,0,0,1,2.988-7.826,10.476,10.476,0,0,1,14.306-.344,9.087,9.087,0,0,1,2.692,6.757A13.3,13.3,0,0,1,1517.222,423.676Zm-14.429-3.589h10.04q-.5-4.485-4.963-4.485Q1503.784,415.6,1502.793,420.087Z" transform="translate(-1076.675 2.767)" fill="#0b1f5b"/>
      <path id="Path_515" data-name="Path 515" d="M1522.261,404.378l4.772-1.145v22.981q0,3.779,2.253,4.505a3.921,3.921,0,0,1-3.779,2.1q-3.246,0-3.246-4.505Z" transform="translate(-1076.675 2.767)" fill="#0b1f5b"/>
      <path id="Path_516" data-name="Path 516" d="M1533.79,404.378l4.771-1.145v22.981q0,3.779,2.253,4.505a3.921,3.921,0,0,1-3.779,2.1q-3.246,0-3.245-4.505Z" transform="translate(-1076.675 2.767)" fill="#0b1f5b"/>
      <path id="Path_517" data-name="Path 517" d="M1544,423.351v-4.486h10.1v4.486Z" transform="translate(-1076.675 2.767)" fill="#0b1f5b"/>
      <path id="Path_518" data-name="Path 518" d="M1564.1,422.148v10.289h-4.963V404.493q4.964-.21,5.8-.21,6.623,0,9.687,2.032a7.076,7.076,0,0,1,3.063,6.347q0,9.62-11.338,9.62Q1565.512,422.282,1564.1,422.148Zm0-13.361v8.952a19.686,19.686,0,0,0,1.985.134,8.554,8.554,0,0,0,4.963-1.136,4.251,4.251,0,0,0,1.565-3.693q0-4.352-7.005-4.352A11.673,11.673,0,0,0,1564.1,408.787Z" transform="translate(-1076.675 2.767)" fill="#0b1f5b"/>
      <path id="Path_519" data-name="Path 519" d="M1600.042,423.676h-14.6a5.184,5.184,0,0,0,1.68,3.8,6.084,6.084,0,0,0,4.161,1.355,6.724,6.724,0,0,0,4.963-1.7l1.851,3.646q-2.52,2.043-7.52,2.042a9.957,9.957,0,0,1-7.4-2.739q-2.719-2.739-2.72-7.644a10.6,10.6,0,0,1,2.987-7.826,10.477,10.477,0,0,1,14.307-.344,9.086,9.086,0,0,1,2.691,6.757A13.359,13.359,0,0,1,1600.042,423.676Zm-14.43-3.589h10.04q-.5-4.485-4.963-4.485Q1586.6,415.6,1585.612,420.087Z" transform="translate(-1076.675 2.767)" fill="#0b1f5b"/>
      <path id="Path_520" data-name="Path 520" d="M1617.411,432.437V431.2a4.838,4.838,0,0,1-2,1.135,8.885,8.885,0,0,1-2.92.487,8.61,8.61,0,0,1-6.728-2.711q-2.454-2.709-2.454-7.558a11.164,11.164,0,0,1,2.816-7.892,9.2,9.2,0,0,1,7.053-3.045,9.346,9.346,0,0,1,4.237.954v-8.188l4.772-1.145v29.2Zm0-15.557a5.042,5.042,0,0,0-3.188-1.221,5.58,5.58,0,0,0-4.409,1.746,7.328,7.328,0,0,0-1.546,5.011q0,6.375,6.147,6.375a4.646,4.646,0,0,0,1.689-.41,3.081,3.081,0,0,0,1.307-.831Z" transform="translate(-1076.675 2.767)" fill="#0b1f5b"/>
      <path id="Path_521" data-name="Path 521" d="M1628.234,432.437v-16.53h-2.615v-3.913h7.444v20.443Zm2.463-28.364a2.771,2.771,0,1,1-1.957.811A2.665,2.665,0,0,1,1630.7,404.073Z" transform="translate(-1076.675 2.767)" fill="#0b1f5b"/>
      <path id="Path_522" data-name="Path 522" d="M1649.994,430.395a4.626,4.626,0,0,1-2.262,1.746,8.627,8.627,0,0,1-3.369.677,7.62,7.62,0,0,1-5.192-1.651,5.889,5.889,0,0,1-1.89-4.686,6.562,6.562,0,0,1,2.663-5.554q2.663-2,7.568-2a8.358,8.358,0,0,1,1.986.286q0-3.608-4.563-3.607a10.1,10.1,0,0,0-4.505.9l-1.03-3.7a13.425,13.425,0,0,1,5.86-1.183q4.677,0,6.852,2.128t2.177,8.065v4.371q0,4.084,1.64,5.135a2.572,2.572,0,0,1-1.316,1.269,5.343,5.343,0,0,1-1.661.238,2.655,2.655,0,0,1-1.852-.763A3.89,3.89,0,0,1,1649.994,430.395Zm-.458-7.579a10.19,10.19,0,0,0-1.833-.248q-5.65,0-5.65,3.7,0,2.75,3.188,2.749,4.295,0,4.3-4.294Z" transform="translate(-1076.675 2.767)" fill="#0b1f5b"/>
    </g>
    <circle id="Ellipse_52" data-name="Ellipse 52" cx="63.947" cy="63.947" r="63.947" transform="translate(824.205 2555.201)" fill="#fff"/>
    <circle id="Ellipse_53" data-name="Ellipse 53" cx="53.796" cy="53.796" r="53.796" transform="translate(833.711 2565.201)" fill="#f9d6e0"/>
    <path id="Path_651" data-name="Path 651" d="M1702.529,411.281v21.252a4.48,4.48,0,0,0,4.482,4.481h35.612a4.481,4.481,0,0,0,4.479-4.481V411.281a4.483,4.483,0,0,0-4.479-4.484h-7.255v-2.5a5.585,5.585,0,0,0-5.579-5.579h-9.949a5.584,5.584,0,0,0-5.573,5.579v2.5h-7.256A4.482,4.482,0,0,0,1702.529,411.281Zm29.39-6.984a2.128,2.128,0,0,1-2.13,2.127h-9.949a2.129,2.129,0,0,1,0-4.258h9.949A2.131,2.131,0,0,1,1731.919,404.3Zm-16.535,14.586h6.432V412.45h6v6.433h6.431v6h-6.431v6.432h-6V424.88h-6.432Z" transform="translate(-836.818 2200.483)" fill="#eb6d9c"/>
    <circle id="Ellipse_54" data-name="Ellipse 54" cx="63.947" cy="63.947" r="63.947" transform="translate(487.938 2555.201)" fill="#fff"/>
    <circle id="Ellipse_55" data-name="Ellipse 55" cx="53.796" cy="53.796" r="53.796" transform="translate(497.711 2565.201)" fill="#c7e3c6"/>
    <path id="Path_652" data-name="Path 652" d="M1360.6,396.635v36.277a4.928,4.928,0,0,0,4.923,4.923H1401.8a4.929,4.929,0,0,0,4.924-4.923V396.635a4.929,4.929,0,0,0-4.924-4.923h-36.277A4.928,4.928,0,0,0,1360.6,396.635Zm4.923-1.3H1401.8a1.3,1.3,0,0,1,1.3,1.3v36.277a1.3,1.3,0,0,1-1.3,1.3h-36.277a1.3,1.3,0,0,1-1.3-1.3V396.635A1.3,1.3,0,0,1,1365.526,395.34Zm2.45,2.745-.9.137,2.055,13.486.9-.136a90.873,90.873,0,0,1,27.268,0l.9.136,2.056-13.486-.9-.137a104.694,104.694,0,0,0-31.378,0Zm13.876,10.653a92.492,92.492,0,0,0-11.195.9l-1.507-9.889a102.921,102.921,0,0,1,29.029,0l-1.507,9.889a92.506,92.506,0,0,0-11.195-.9q-.388-1.252-.8-2.5-.491-1.487-1.014-2.968-.523,1.481-1.014,2.968Q1382.239,407.485,1381.852,408.737Zm13.806-7.484-.478,3.93-1.146-.1.479-3.93Zm-3.263-.269-.343,3.94-1.147-.073.343-3.94Zm-3.265-.18-.209,3.947-1.149-.042.208-3.948Zm-3.271-.094-.073,3.95-1.152-.011.073-3.95Zm-3.21,3.944-1.151.018-.063-3.95,1.152-.018Zm-3.136.076-1.151.048-.2-3.946,1.15-.048Zm-3.134.16-1.148.079-.334-3.938,1.149-.079Zm-3.126.243-1.145.11-.468-3.927,1.144-.11Z" transform="translate(-831.892 2203.489)" fill="#03a677"/>
    <circle id="Ellipse_56" data-name="Ellipse 56" cx="63.947" cy="63.947" r="63.947" transform="translate(656.711 2387.751)" fill="#fff"/>
    <circle id="Ellipse_57" data-name="Ellipse 57" cx="53.796" cy="53.796" r="53.796" transform="translate(666.711 2397.271)" fill="#d1e6f5"/>
    <path id="Path_653" data-name="Path 653" d="M1533.714,230.417a14.316,14.316,0,0,1,10.033-3.778q7.818,0,10.9,6.689,3.077-6.688,10.9-6.689a14.318,14.318,0,0,1,10.034,3.778,12.767,12.767,0,0,1,4.309,9.785c0,8.308-5.2,15.64-10.876,21.145l-6.2-5.491a5.839,5.839,0,0,0-3.169-1.473,3.218,3.218,0,0,0-.468-.889,12.99,12.99,0,1,0-12.026,6.919l.942.007,1.026-.076a12.945,12.945,0,0,0,4.363-1.286,3.254,3.254,0,0,0,.706.415,4.68,4.68,0,0,0,.156.942,5.942,5.942,0,0,0,1.493,2.561l4.7,5.272a40.589,40.589,0,0,1-5.89,3.538c-1.232-.373-25.238-13.723-25.238-31.583A12.768,12.768,0,0,1,1533.714,230.417Zm6.237,9.35a10.891,10.891,0,0,1,16.129,14.605l-.04.04a1.147,1.147,0,0,1,1.354.219,17.908,17.908,0,0,1,1.375,1.829,3.549,3.549,0,0,1,2.607.926l10.288,9.112a2.928,2.928,0,0,1,.411,4.09l-1.54,1.535a2.956,2.956,0,0,1-4.106-.409l-9.077-10.173a3.083,3.083,0,0,1-.994-2.9,15.466,15.466,0,0,1-1.728-1.346,1.146,1.146,0,0,1-.2-1.312,10.889,10.889,0,0,1-14.484-16.213Zm30.526,27.525c.071-.1-.065-.375-.3-.607l-7.661-7.449c-.24-.233-.491-.338-.563-.236s.065.375.3.608l7.66,7.447C1570.155,267.289,1570.406,267.395,1570.477,267.292Zm-1.268,1.975a.478.478,0,0,0-.113-.648l-7.667-7.635a.483.483,0,0,0-.649-.114c-.149.148-.1.437.113.648l7.667,7.636A.482.482,0,0,0,1569.21,269.267Zm-10.042-6.7,7.478,7.63c.234.239.507.375.61.3s0-.322-.238-.561l-7.477-7.63c-.235-.239-.508-.375-.61-.3S1558.934,262.33,1559.168,262.569Zm-17.246-9.332a8.168,8.168,0,1,0-.039-11.551A8.166,8.166,0,0,0,1541.922,253.237Z" transform="translate(-834.694 2201.988)" fill="#0b1f5b" fill-rule="evenodd"/>
    <circle id="Ellipse_58" data-name="Ellipse 58" cx="63.947" cy="63.947" r="63.947" transform="translate(656.711 2724.019)" fill="#fff"/>
    <circle id="Ellipse_59" data-name="Ellipse 59" cx="53.796" cy="53.796" r="53.796" transform="translate(666.711 2734.201)" fill="#ffe4b3"/>
    <g id="Group_52" data-name="Group 52" transform="translate(-836.611 2196.072)">
      <g id="Group_37" data-name="Group 37" transform="translate(1521.322 574.418)">
        <path id="Path_523" data-name="Path 523" d="M1568.423,579.907a4.12,4.12,0,0,1,3.631,1.831c.723,1.047,1.286,2.19,1.921,3.29,1.467,2.545,2.912,5.1,4.38,7.648a3.153,3.153,0,0,1,.247,3.055c-.259.57-.241.576-.795.24a6.991,6.991,0,0,0-1.9-.92,4.559,4.559,0,0,0-5.1,2.148c-.2.348-.4.444-.74.328a3.4,3.4,0,0,0-2.124.155,4.206,4.206,0,0,0-2.977,3.019,1.662,1.662,0,0,1-1.081,1.246,2.245,2.245,0,0,0-.947.568,5.1,5.1,0,0,0-.47.74,4.2,4.2,0,0,0-.7,1.528c-.086.441-.23.813-.751.909a1.265,1.265,0,0,0-.464.262,4.589,4.589,0,0,0-1.693,5.629c.164.409.045.514-.255.708a4.019,4.019,0,0,1-3.213.687,3.663,3.663,0,0,1-2.769-2.7c-.075-.244-.119-.237-.321-.134a3.6,3.6,0,0,1-3.731-.175,3.761,3.761,0,0,1-1.61-2.262c-.036-.12,0-.329-.236-.27a3.688,3.688,0,0,1-1.884-.057,3.259,3.259,0,0,1-1.735-1.03,3.542,3.542,0,0,1-.916-1.84c-.014-.126-.079-.156-.2-.122a3.453,3.453,0,0,1-1.773-.025,3.606,3.606,0,0,1-2.755-3.038,3.539,3.539,0,0,1,1.773-3.729c1.024-.621,2.067-1.211,3.1-1.81q2.927-1.689,5.858-3.372c1.714-.987,3.434-1.962,5.139-2.964a12.429,12.429,0,0,1,3.287-1.421c.482-.12.973-.139,1.452-.243.552-.12.623-.086.96.377a15.6,15.6,0,0,0,3.589,3.706,5.744,5.744,0,0,0,2.87,1.151,4.592,4.592,0,0,0,3.311-1.063,3.607,3.607,0,0,0,1.333-1.954,4.168,4.168,0,0,0-.389-2.789c-.527-1.144-1.259-2.177-1.878-3.272a14.58,14.58,0,0,0-2.57-3.793c-.044-.04-.132-.09-.071-.177s.151-.063.232-.064c.589,0,1.179,0,1.769,0C1567.629,579.907,1568.026,579.909,1568.423,579.907Zm-16.89,0c-2.263,0-4.526.036-6.787-.011a4.727,4.727,0,0,0-4.536,2.656c-1.447,2.583-2.956,5.131-4.426,7.7a21.882,21.882,0,0,0-1.062,1.915,2.612,2.612,0,0,0,.894,3.4,12.6,12.6,0,0,0,1.095.689.415.415,0,0,0,.471-.028q3.253-1.88,6.509-3.755,3.493-2,6.994-3.993c.926-.529,1.839-1.084,2.781-1.582a12.036,12.036,0,0,1,3.005-1.063,14.719,14.719,0,0,1,3.083-.23.626.626,0,0,1,.585.329,17.848,17.848,0,0,0,2.726,3.336,6.132,6.132,0,0,0,1.971,1.3,2.666,2.666,0,0,0,2.033.039,1.7,1.7,0,0,0,.9-2.518c-.75-1.392-1.52-2.774-2.345-4.125a9.123,9.123,0,0,0-1.7-2.26,6.776,6.776,0,0,0-2.77-1.46,12.537,12.537,0,0,0-3.245-.346Q1554.62,579.912,1551.533,579.908Zm13.31,23.9a2.536,2.536,0,0,0-.913,3.2.91.91,0,0,1,.112.426,4.393,4.393,0,0,0-1.25-.105,2.49,2.49,0,0,0-1.1,4.56c.679.4,1.348.824,2.063,1.167a3.693,3.693,0,0,0,4.556-1.274c.182-.28.234-.737.523-.823a7.064,7.064,0,0,1,.948-.1,3.457,3.457,0,0,0,2.474-1.574c.02-.03.054-.052.066-.083.232-.613.689-.72,1.317-.794a3.707,3.707,0,0,0,3.3-3.634.451.451,0,0,1,.215-.421A3.693,3.693,0,0,0,1577,597.9a10.242,10.242,0,0,0-1.424-.761,2.856,2.856,0,0,0-3.436,1.239,6.81,6.81,0,0,0-.4,1.764c0,.034.026.065.035.1,0,.007-.011.019-.03.051-.657-.187-.442.006-1.081-.365a2.512,2.512,0,0,0-2.956.195,2.482,2.482,0,0,0-.717,2.842,2.25,2.25,0,0,0,.253.6,3.767,3.767,0,0,0-1.332-.143Zm-31.227-29.224,5.459,3.152a1.262,1.262,0,0,1,.462,1.723l-10.4,18.016a1.262,1.262,0,0,1-1.723.462l-5.459-3.152a1.262,1.262,0,0,1-.462-1.723l10.4-18.016A1.262,1.262,0,0,1,1533.615,574.587Zm-7.672,19.592a1.576,1.576,0,1,0-.576-2.152A1.575,1.575,0,0,0,1525.943,594.179Zm54.96-19.13,10.4,18.016a1.261,1.261,0,0,1-.461,1.723l-5.46,3.152a1.261,1.261,0,0,1-1.722-.462l-10.4-18.016a1.262,1.262,0,0,1,.461-1.723l5.459-3.152A1.263,1.263,0,0,1,1580.9,575.049Zm6.526,16.978a1.576,1.576,0,1,0-.577,2.152A1.575,1.575,0,0,0,1587.43,592.027Z" transform="translate(-1521.322 -574.418)" fill="#f7b52c" fill-rule="evenodd"/>
      </g>
    </g>
  </g>
</svg>
